<svg width="87" height="86" viewBox="0 0 87 86" fill="none" xmlns="http://www.w3.org/2000/svg">
<path d="M43.1097 0.5C21.4185 0.5 22.7729 9.90656 22.7729 9.90656L22.797 19.6521H43.4964V22.5779H14.5755C14.5755 22.5779 0.695312 21.0037 0.695312 42.8899C0.695312 64.7768 12.8103 64.0006 12.8103 64.0006H20.0404V53.8442C20.0404 53.8442 19.6506 41.7293 31.962 41.7293H52.4921C52.4921 41.7293 64.0266 41.9156 64.0266 30.5816V11.8414C64.0266 11.8414 65.7784 0.5 43.1097 0.5ZM31.696 7.05365C32.1851 7.05321 32.6696 7.14922 33.1216 7.33621C33.5736 7.52319 33.9842 7.79747 34.3301 8.14334C34.676 8.48922 34.9503 8.89991 35.1372 9.3519C35.3242 9.80389 35.4202 10.2883 35.4198 10.7775C35.4202 11.2666 35.3242 11.751 35.1372 12.203C34.9503 12.655 34.676 13.0657 34.3301 13.4116C33.9842 13.7575 33.5736 14.0317 33.1216 14.2187C32.6696 14.4057 32.1851 14.5017 31.696 14.5013C31.2069 14.5017 30.7224 14.4057 30.2704 14.2187C29.8184 14.0317 29.4078 13.7575 29.0619 13.4116C28.716 13.0657 28.4417 12.655 28.2547 12.203C28.0678 11.751 27.9717 11.2666 27.9722 10.7775C27.9717 10.2883 28.0678 9.80389 28.2547 9.3519C28.4417 8.89991 28.716 8.48922 29.0619 8.14334C29.4078 7.79747 29.8184 7.52319 30.2704 7.33621C30.7224 7.14922 31.2069 7.05321 31.696 7.05365Z" fill="#397FB8"/>
<path d="M43.726 85.5C65.4171 85.5 64.0628 76.0934 64.0628 76.0934L64.0387 66.3482H43.3389V63.4224H72.2599C72.2599 63.4224 86.14 64.9966 86.14 43.1097C86.14 21.2232 74.0251 21.9994 74.0251 21.9994H66.7949V32.1554C66.7949 32.1554 67.1847 44.2703 54.8734 44.2703H34.3432C34.3432 44.2703 22.8087 44.084 22.8087 55.4184V74.1589C22.8087 74.1589 21.0572 85.5 43.7257 85.5H43.726ZM55.1397 78.947C54.6505 78.9474 54.1661 78.8514 53.7141 78.6644C53.2621 78.4774 52.8514 78.2032 52.5056 77.8573C52.1597 77.5114 51.8854 77.1007 51.6984 76.6487C51.5114 76.1967 51.4154 75.7123 51.4159 75.2232C51.4154 74.734 51.5114 74.2495 51.6983 73.7975C51.8853 73.3455 52.1596 72.9347 52.5054 72.5888C52.8513 72.2429 53.262 71.9686 53.714 71.7816C54.166 71.5946 54.6505 71.4986 55.1397 71.499C55.6288 71.4986 56.1132 71.5946 56.5652 71.7816C57.0172 71.9686 57.4279 72.2428 57.7738 72.5887C58.1197 72.9346 58.3939 73.3453 58.5809 73.7973C58.7679 74.2493 58.8639 74.7337 58.8635 75.2228C58.8639 75.712 58.7679 76.1964 58.5809 76.6484C58.3939 77.1004 58.1197 77.5111 57.7738 77.8569C57.4279 78.2028 57.0172 78.4771 56.5652 78.6641C56.1132 78.8511 55.6288 78.9474 55.1397 78.947Z" fill="#FFE053"/>
</svg>
