<svg width="100" height="100" viewBox="0 0 100 100" fill="none" xmlns="http://www.w3.org/2000/svg">
<path d="M46.7185 0.0269104C46.5035 0.0464578 45.8193 0.114874 45.2035 0.163743C31.0023 1.4441 17.7002 9.10671 9.27528 20.8841C4.58388 27.4325 1.58335 34.8605 0.449592 42.7284C0.0488687 45.4748 0 46.286 0 50.0098C0 53.7336 0.0488687 54.5448 0.449592 57.2912C3.16669 76.0666 16.5274 91.8414 34.6479 97.6861C37.8928 98.7319 41.3136 99.4453 45.2035 99.8754C46.7185 100.042 53.2669 100.042 54.7818 99.8754C61.4964 99.1326 67.1847 97.471 72.7948 94.6073C73.6549 94.1675 73.8211 94.0502 73.7038 93.9525C73.6256 93.8939 69.9604 88.9777 65.5622 83.0352L57.5673 72.2353L47.5492 57.4085C42.0369 49.2572 37.5018 42.5915 37.4627 42.5915C37.4236 42.5818 37.3846 49.1693 37.365 57.213C37.3357 71.297 37.3259 71.8639 37.15 72.1962C36.8959 72.6751 36.7004 72.8706 36.2899 73.0856C35.9771 73.242 35.7035 73.2713 34.2276 73.2713H32.5368L32.0872 72.9878C31.794 72.8021 31.579 72.5578 31.4323 72.2744L31.2271 71.8345L31.2466 52.2382L31.276 32.6321L31.579 32.2509C31.7353 32.0457 32.0676 31.7818 32.3022 31.6547C32.7029 31.4592 32.8593 31.4397 34.5502 31.4397C36.544 31.4397 36.8763 31.5179 37.3943 32.0848C37.5409 32.2411 42.9654 40.412 49.4551 50.2541C55.9449 60.0963 64.8194 73.5352 69.1785 80.1324L77.0953 92.1248L77.496 91.8609C81.0438 89.5543 84.797 86.2703 87.7682 82.8495C94.0918 75.5877 98.1674 66.7327 99.5358 57.2912C99.9365 54.5448 99.9854 53.7336 99.9854 50.0098C99.9854 46.286 99.9365 45.4748 99.5358 42.7284C96.8187 23.953 83.458 8.17821 65.3374 2.33351C62.1414 1.2975 58.7402 0.584013 54.9284 0.153969C53.9901 0.0562316 47.5297 -0.0512795 46.7185 0.0269104ZM67.1847 30.2668C67.6538 30.5014 68.035 30.951 68.1718 31.4201C68.25 31.6743 68.2696 37.1085 68.25 49.3549L68.2207 66.9281L65.1224 62.1781L62.0144 57.4281V44.6538C62.0144 36.395 62.0535 31.7525 62.1121 31.5277C62.2685 30.9803 62.6106 30.5503 63.0797 30.2962C63.4804 30.0909 63.627 30.0714 65.1615 30.0714C66.608 30.0714 66.8622 30.0909 67.1847 30.2668Z" fill="black"/>
<path d="M76.6049 92.3398C76.2629 92.5548 76.1554 92.7014 76.4583 92.5352C76.6734 92.4082 77.0252 92.1443 76.9666 92.1345C76.9373 92.1345 76.7711 92.2323 76.6049 92.3398ZM75.9306 92.7796C75.7546 92.9164 75.7546 92.9262 75.9696 92.8187C76.0869 92.76 76.1847 92.6916 76.1847 92.6721C76.1847 92.5939 76.1358 92.6134 75.9306 92.7796ZM75.4419 93.0728C75.2659 93.2096 75.2659 93.2194 75.481 93.1119C75.5982 93.0533 75.696 92.9848 75.696 92.9653C75.696 92.8871 75.6471 92.9066 75.4419 93.0728ZM74.9532 93.366C74.7773 93.5028 74.7773 93.5126 74.9923 93.4051C75.1096 93.3465 75.2073 93.278 75.2073 93.2585C75.2073 93.1803 75.1584 93.1999 74.9532 93.366ZM74.2104 93.757C73.839 93.9524 73.8585 94.0306 74.2299 93.8449C74.3961 93.757 74.5231 93.669 74.5231 93.6495C74.5231 93.581 74.5134 93.5908 74.2104 93.757Z" fill="black"/>
</svg>
