<svg width="100" height="100" viewBox="0 0 100 100" fill="none" xmlns="http://www.w3.org/2000/svg">
<path d="M50.0701 58.8162C54.9392 58.8162 58.8864 54.869 58.8864 49.9999C58.8864 45.1309 54.9392 41.1837 50.0701 41.1837C45.2011 41.1837 41.2539 45.1309 41.2539 49.9999C41.2539 54.869 45.2011 58.8162 50.0701 58.8162Z" fill="#61DAFB"/>
<path d="M50.0723 68.0616C76.199 68.0616 97.3789 59.9747 97.3789 49.9991C97.3789 40.0234 76.199 31.9365 50.0723 31.9365C23.9455 31.9365 2.76562 40.0234 2.76562 49.9991C2.76562 59.9747 23.9455 68.0616 50.0723 68.0616Z" stroke="#61DAFB" stroke-width="5"/>
<path d="M34.4267 59.0313C47.4901 81.6577 65.0834 95.9566 73.7226 90.9687C82.3618 85.9809 78.7753 63.5951 65.7119 40.9687C52.6485 18.3423 35.0552 4.04343 26.416 9.03126C17.7768 14.0191 21.3633 36.4049 34.4267 59.0313Z" stroke="#61DAFB" stroke-width="5"/>
<path d="M34.4286 40.9688C21.3653 63.5952 17.7788 85.981 26.4179 90.9688C35.0571 95.9566 52.6505 81.6578 65.7139 59.0314C78.7772 36.4049 82.3638 14.0192 73.7246 9.03136C65.0854 4.04353 47.492 18.3424 34.4286 40.9688Z" stroke="#61DAFB" stroke-width="5"/>
</svg>
