<svg width="135" height="80" viewBox="0 0 135 80" fill="none" xmlns="http://www.w3.org/2000/svg">
<path d="M38.6906 29.0545C38.6906 30.7008 38.8686 32.0356 39.18 33.0145C39.536 33.9933 39.9809 35.0612 40.6038 36.218C40.8263 36.574 40.9153 36.9299 40.9153 37.2414C40.9153 37.6863 40.6483 38.1313 40.0699 38.5762L37.2668 40.4449C36.8663 40.7119 36.4659 40.8454 36.1099 40.8454C35.665 40.8454 35.2201 40.6229 34.7751 40.2225C34.1522 39.5551 33.6183 38.8432 33.1733 38.1313C32.7284 37.3749 32.2835 36.5295 31.794 35.5061C28.3235 39.5996 23.9631 41.6463 18.7128 41.6463C14.9753 41.6463 11.9942 40.5784 9.81403 38.4427C7.63383 36.307 6.52148 33.4594 6.52148 29.8999C6.52148 26.1179 7.8563 23.0478 10.5704 20.7341C13.2846 18.4205 16.8886 17.2636 21.4714 17.2636C22.9842 17.2636 24.5415 17.3971 26.1878 17.6196C27.8341 17.842 29.5248 18.198 31.3046 18.5984V15.3504C31.3046 11.9689 30.5927 9.61068 29.2134 8.23137C27.7896 6.85206 25.3869 6.18465 21.9609 6.18465C20.4036 6.18465 18.8018 6.36262 17.1555 6.76307C15.5093 7.16351 13.9075 7.65295 12.3502 8.27586C11.6383 8.58732 11.1044 8.76529 10.7929 8.85428C10.4814 8.94327 10.259 8.98776 10.081 8.98776C9.45808 8.98776 9.14662 8.54282 9.14662 7.60845V5.42825C9.14662 4.71635 9.23561 4.18242 9.45808 3.87097C9.68055 3.55951 10.081 3.24805 10.7039 2.9366C12.2612 2.13571 14.1299 1.4683 16.3101 0.934371C18.4903 0.355951 20.804 0.0889877 23.2512 0.0889877C28.546 0.0889877 32.4169 1.29032 34.9086 3.69299C37.3558 6.09566 38.6016 9.74416 38.6016 14.6385V29.0545H38.6906ZM20.6261 35.8176C22.0944 35.8176 23.6071 35.5506 25.2089 35.0167C26.8107 34.4828 28.2345 33.5039 29.4358 32.1691C30.1477 31.3237 30.6817 30.3893 30.9486 29.3215C31.2156 28.2536 31.3936 26.9633 31.3936 25.4505V23.5818C30.1033 23.2703 28.7239 23.0033 27.3001 22.8254C25.8763 22.6474 24.497 22.5584 23.1177 22.5584C20.1366 22.5584 17.9564 23.1368 16.4881 24.3382C15.0198 25.5395 14.3079 27.2303 14.3079 29.4549C14.3079 31.5462 14.8418 33.1034 15.9542 34.1713C17.022 35.2836 18.5793 35.8176 20.6261 35.8176ZM56.3547 40.6229C55.5538 40.6229 55.0198 40.4894 54.6639 40.178C54.3079 39.911 53.9965 39.2881 53.7295 38.4427L43.2734 4.04894C43.0065 3.15907 42.873 2.58064 42.873 2.26919C42.873 1.55729 43.229 1.15684 43.9409 1.15684H48.3013C49.1466 1.15684 49.7251 1.29032 50.0365 1.60178C50.3925 1.86874 50.6594 2.49166 50.9264 3.33704L58.4014 32.792L65.3424 3.33704C65.5649 2.44716 65.8319 1.86874 66.1878 1.60178C66.5438 1.33482 67.1667 1.15684 67.9676 1.15684H71.5271C72.3725 1.15684 72.9509 1.29032 73.3068 1.60178C73.6628 1.86874 73.9742 2.49166 74.1522 3.33704L81.1823 33.1479L88.8797 3.33704C89.1467 2.44716 89.4581 1.86874 89.7696 1.60178C90.1255 1.33482 90.7039 1.15684 91.5048 1.15684H95.6428C96.3547 1.15684 96.7551 1.51279 96.7551 2.26919C96.7551 2.49166 96.7106 2.71413 96.6661 2.98109C96.6216 3.24805 96.5327 3.604 96.3547 4.09344L85.6316 38.4872C85.3647 39.3771 85.0532 39.9555 84.6973 40.2225C84.3413 40.4894 83.7629 40.6674 83.0065 40.6674H79.18C78.3346 40.6674 77.7562 40.5339 77.4003 40.2225C77.0443 39.911 76.7329 39.3326 76.5549 38.4427L69.6583 9.74416L62.8063 38.3982C62.5838 39.2881 62.3168 39.8665 61.9609 40.178C61.6049 40.4894 60.982 40.6229 60.1811 40.6229H56.3547ZM113.529 41.8242C111.216 41.8242 108.902 41.5573 106.677 41.0234C104.453 40.4894 102.717 39.911 101.56 39.2436C100.849 38.8432 100.359 38.3982 100.181 37.9978C100.003 37.5973 99.9142 37.1524 99.9142 36.7519V34.4828C99.9142 33.5484 100.27 33.1034 100.938 33.1034C101.205 33.1034 101.471 33.1479 101.738 33.2369C102.005 33.3259 102.406 33.5039 102.851 33.6819C104.364 34.3493 106.01 34.8832 107.745 35.2392C109.525 35.5951 111.26 35.7731 113.04 35.7731C115.843 35.7731 118.023 35.2836 119.536 34.3048C121.049 33.3259 121.85 31.9021 121.85 30.0779C121.85 28.832 121.449 27.8087 120.648 26.9633C119.847 26.1179 118.335 25.3615 116.154 24.6496L109.703 22.6474C106.455 21.624 104.052 20.1112 102.584 18.109C101.116 16.1513 100.359 13.9711 100.359 11.6574C100.359 9.78865 100.76 8.14238 101.56 6.71858C102.361 5.29477 103.429 4.04894 104.764 3.07008C106.099 2.04672 107.612 1.29032 109.391 0.756396C111.171 0.222469 113.04 0 114.998 0C115.976 0 117 0.0444939 117.979 0.177976C119.002 0.311457 119.936 0.489433 120.871 0.667408C121.761 0.889877 122.606 1.11235 123.407 1.37931C124.208 1.64627 124.831 1.91324 125.276 2.1802C125.899 2.53615 126.344 2.8921 126.611 3.29255C126.877 3.6485 127.011 4.13793 127.011 4.76084V6.85206C127.011 7.78643 126.655 8.27586 125.988 8.27586C125.632 8.27586 125.053 8.09789 124.297 7.74193C121.761 6.58509 118.913 6.00667 115.754 6.00667C113.218 6.00667 111.216 6.40712 109.836 7.2525C108.457 8.09789 107.745 9.38821 107.745 11.2125C107.745 12.4583 108.19 13.5261 109.08 14.3715C109.97 15.2169 111.616 16.0623 113.974 16.8187L120.292 18.8209C123.496 19.8443 125.81 21.2681 127.189 23.0923C128.568 24.9166 129.236 27.0078 129.236 29.3215C129.236 31.2347 128.835 32.97 128.079 34.4828C127.278 35.9955 126.21 37.3304 124.831 38.3982C123.451 39.5106 121.805 40.3115 119.892 40.8899C117.89 41.5128 115.799 41.8242 113.529 41.8242Z" fill="#252F3E"/>
<path fill-rule="evenodd" clip-rule="evenodd" d="M121.935 63.4484C107.297 74.2604 86.0284 80.0001 67.7414 80.0001C42.1129 80.0001 19.0206 70.5229 1.57899 54.772C0.199684 53.5262 1.44551 51.8355 3.09179 52.8143C21.9572 63.7598 45.2275 70.3894 69.2987 70.3894C85.539 70.3894 103.381 67.0079 119.799 60.0668C122.246 58.9545 124.338 61.6686 121.935 63.4484Z" fill="#FF9900"/>
<path fill-rule="evenodd" clip-rule="evenodd" d="M128.031 56.5073C126.162 54.1046 115.661 55.3505 110.901 55.9289C109.477 56.1069 109.254 54.861 110.545 53.9267C118.91 48.0535 132.658 49.7442 134.26 51.702C135.862 53.7042 133.815 67.4528 125.984 74.0379C124.783 75.0613 123.626 74.5273 124.16 73.1925C125.94 68.7876 129.9 58.8655 128.031 56.5073Z" fill="#FF9900"/>
</svg>
