<svg width="125" height="70" viewBox="0 0 125 70" fill="none" xmlns="http://www.w3.org/2000/svg">
<path d="M90.854 52.2973C88.0013 52.2973 85.6808 49.9749 85.6808 47.1222C85.6808 44.2696 88.0013 41.9491 90.854 41.9491C93.7071 41.9491 96.0276 44.2691 96.0276 47.1222C96.0276 49.9754 93.7071 52.2973 90.854 52.2973ZM33.6706 52.2973C30.8179 52.2973 28.4975 49.9749 28.4975 47.1222C28.4975 44.2696 30.8175 41.9491 33.6706 41.9491C36.5233 41.9491 38.8438 44.2691 38.8438 47.1222C38.8438 49.9754 36.5238 52.2973 33.6706 52.2973ZM92.7095 21.1333L103.049 3.22554C103.334 2.73133 103.411 2.14439 103.263 1.59352C103.116 1.04265 102.755 0.572834 102.262 0.287159C101.768 0.00267049 101.181 -0.0742011 100.63 0.0734042C100.079 0.22101 99.6092 0.58104 99.3235 1.07454L88.8545 19.2086C80.848 15.5553 71.8568 13.5198 62.2623 13.5198C52.6678 13.5198 43.6766 15.5553 35.6706 19.2086L25.2011 1.07454C24.9154 0.58104 24.4455 0.22101 23.8947 0.0734042C23.3439 -0.0742011 22.757 0.00267049 22.2628 0.287159C21.7689 0.572566 21.4085 1.04239 21.2609 1.59337C21.1132 2.14435 21.1904 2.73142 21.4754 3.22554L31.8151 21.1333C14.0603 30.7898 1.9171 48.7642 0.140625 70H124.384C122.606 48.7647 110.463 30.7897 92.7095 21.1328" fill="#3DDB85"/>
</svg>
