<svg width="87" height="100" viewBox="0 0 87 100" fill="none" xmlns="http://www.w3.org/2000/svg">
<path d="M42.9416 24.1943C48.4644 24.1943 53.3093 22.0377 57.4763 17.7243C61.6432 13.4109 63.7268 8.39526 63.7268 2.67726C63.7268 2.04926 63.6771 1.15684 63.578 0C62.8504 0.0991579 62.3047 0.181789 61.9409 0.247895C56.848 0.975053 52.3668 3.47053 48.4975 7.73421C44.6282 11.998 42.6936 16.5593 42.6936 21.418C42.6936 21.9798 42.7762 22.9054 42.9416 24.1943ZM62.7346 100C66.6701 100 71.0189 97.3063 75.7813 91.9187C80.5436 86.5312 84.1813 80.2016 86.6947 72.9301C77.3356 68.1044 72.656 61.18 72.656 52.1566C72.656 44.6207 76.4426 38.1756 84.016 32.8211C78.7577 26.2436 71.8127 22.9548 63.1811 22.9548C59.5432 22.9548 56.2197 23.5002 53.2102 24.5909L51.3251 25.2851L48.7951 26.2766C47.1416 26.9046 45.6368 27.2187 44.2809 27.2187C43.2226 27.2187 41.8336 26.8551 40.114 26.1279L38.1792 25.3346L36.3439 24.5909C33.665 23.4672 30.7879 22.9053 27.7123 22.9053C19.4775 22.9053 12.8633 25.6817 7.86954 31.2345C2.87575 36.7873 0.378906 44.1084 0.378906 53.1978C0.378906 65.9891 4.38049 77.8054 12.3838 88.6465C17.9398 96.2155 23.0162 100 27.613 100C29.5643 100 31.4989 99.6199 33.417 98.8597L35.8478 97.8681L37.7825 97.174C40.4943 96.2155 42.9911 95.7362 45.273 95.7362C47.6872 95.7362 50.4652 96.3478 53.607 97.5706L55.1448 98.1656C58.3526 99.3885 60.8827 100 62.7346 100Z" fill="black"/>
</svg>
