<svg width="101" height="100" viewBox="0 0 101 100" fill="none" xmlns="http://www.w3.org/2000/svg">
<path d="M90.7442 0H10.2754C4.88199 0 0.509766 4.37222 0.509766 9.76562V90.2344C0.509766 95.6278 4.88199 100 10.2754 100H90.7442C96.1376 100 100.51 95.6278 100.51 90.2344V9.76562C100.51 4.37222 96.1376 0 90.7442 0Z" fill="#3178C6"/>
<path d="M90.7442 0H10.2754C4.88199 0 0.509766 4.37222 0.509766 9.76562V90.2344C0.509766 95.6278 4.88199 100 10.2754 100H90.7442C96.1376 100 100.51 95.6278 100.51 90.2344V9.76562C100.51 4.37222 96.1376 0 90.7442 0Z" fill="#3178C6"/>
<path fill-rule="evenodd" clip-rule="evenodd" d="M62.4119 79.575V89.3525C64.0014 90.1674 65.8813 90.7783 68.0516 91.1857C70.2219 91.5932 72.5092 91.7969 74.9139 91.7969C77.2574 91.7969 79.4836 91.5729 81.5928 91.1246C83.702 90.6766 85.5514 89.9381 87.1409 88.9094C88.7303 87.8809 89.9887 86.5363 90.9158 84.8762C91.843 83.216 92.3067 81.1639 92.3067 78.7195C92.3067 76.9473 92.0418 75.3941 91.5119 74.06C90.9821 72.7258 90.218 71.5393 89.2194 70.5004C88.2209 69.4615 87.0237 68.5295 85.6278 67.7045C84.2319 66.8795 82.6576 66.1004 80.9051 65.3672C79.6213 64.8375 78.4699 64.3232 77.451 63.8242C76.4321 63.325 75.566 62.8158 74.8528 62.2965C74.1395 61.777 73.5893 61.227 73.2022 60.6465C72.8151 60.0658 72.6213 59.409 72.6213 58.6756C72.6213 58.0035 72.7946 57.3975 73.141 56.8576C73.4875 56.3178 73.9766 55.8545 74.6082 55.4674C75.2401 55.0805 76.0143 54.7799 76.9313 54.566C77.8485 54.3521 78.8672 54.2453 79.9881 54.2453C80.8032 54.2453 81.6641 54.3064 82.5709 54.4285C83.4778 54.5508 84.3897 54.7393 85.3069 54.9937C86.2239 55.2484 87.1153 55.5693 87.9815 55.9563C88.8475 56.3434 89.6473 56.7914 90.3809 57.3008V48.1648C88.8934 47.5945 87.2682 47.1719 85.5055 46.8969C83.7428 46.6219 81.7201 46.4844 79.4379 46.4844C77.1147 46.4844 74.9139 46.734 72.8354 47.233C70.7569 47.732 68.9279 48.5111 67.3485 49.5703C65.7692 50.6297 64.5211 51.9791 63.6041 53.6189C62.6871 55.2586 62.2285 57.2191 62.2285 59.5006C62.2285 62.4135 63.0692 64.8986 64.7504 66.9561C66.4315 69.0133 68.9838 70.7549 72.4074 72.1809C73.7524 72.7309 75.0057 73.2705 76.1672 73.8002C77.3287 74.3299 78.3324 74.8799 79.178 75.4502C80.0237 76.0205 80.691 76.6418 81.1803 77.3141C81.6694 77.9861 81.9139 78.75 81.9139 79.6057C81.9139 80.2371 81.761 80.8227 81.4553 81.3625C81.1496 81.9023 80.686 82.3707 80.0645 82.768C79.443 83.1652 78.6686 83.4758 77.7414 83.6998C76.8141 83.924 75.7291 84.0359 74.486 84.0359C72.3666 84.0359 70.2678 83.6643 68.1891 82.9207C66.1106 82.1773 64.1848 81.0621 62.4119 79.575ZM45.9746 55.4848H58.5176V47.4609H23.5566V55.4848H36.0383V91.2109H45.9746V55.4848Z" fill="white"/>
</svg>
