<svg width="101" height="100" viewBox="0 0 101 100" fill="none" xmlns="http://www.w3.org/2000/svg">
<path d="M100.984 0H0.984375V100H100.984V0Z" fill="#F7DF1E"/>
<path d="M68.1609 78.1254C70.1752 81.4143 72.7958 83.8318 77.4307 83.8318C81.3244 83.8318 83.8117 81.8857 83.8117 79.1969C83.8117 75.9746 81.2561 74.8334 76.9704 72.9588L74.6212 71.9508C67.8402 69.0619 63.3355 65.4429 63.3355 57.7921C63.3355 50.7445 68.7053 45.3794 77.0974 45.3794C83.072 45.3794 87.3672 47.4588 90.4625 52.9032L83.145 57.6016C81.5339 54.7127 79.7958 53.5746 77.0974 53.5746C74.345 53.5746 72.6006 55.3207 72.6006 57.6016C72.6006 60.4207 74.3466 61.5619 78.3783 63.308L80.7275 64.3143C88.7117 67.7381 93.2196 71.2286 93.2196 79.0762C93.2196 87.5365 86.5736 92.1715 77.6482 92.1715C68.9212 92.1715 63.2831 88.0127 60.5244 82.5619L68.1609 78.1254ZM34.9656 78.9397C36.4418 81.5588 37.7847 83.773 41.0132 83.773C44.1005 83.773 46.0482 82.5651 46.0482 77.8683V45.9159H55.445V77.9953C55.445 87.7254 49.7402 92.154 41.4132 92.154C33.8894 92.154 29.5323 88.2603 27.3164 83.5707L34.9656 78.9397Z" fill="black"/>
</svg>
