<svg width="107" height="100" viewBox="0 0 107 100" fill="none" xmlns="http://www.w3.org/2000/svg">
<path d="M35.7626 0.001206H67.1666L34.5662 96.5928C34.2311 97.5853 33.5932 98.4478 32.7423 99.0588C31.8914 99.6698 30.8703 99.9985 29.8227 99.9988H5.38261C4.58889 99.9989 3.80657 99.81 3.10034 99.4477C2.39412 99.0854 1.7843 98.5602 1.32134 97.9155C0.858372 97.2708 0.55557 96.5252 0.437981 95.7402C0.320391 94.9552 0.391394 94.1536 0.645115 93.4015L31.0179 3.40718C31.3528 2.41422 31.9908 1.55135 32.842 0.940107C33.6932 0.328866 34.7147 0.00126434 35.7626 0.001206Z" fill="url(#paint0_linear_1157_981)"/>
<path d="M81.3976 64.7885H31.5984C31.1354 64.7879 30.683 64.9269 30.3001 65.1871C29.9172 65.4474 29.6216 65.817 29.4517 66.2477C29.2819 66.6784 29.2457 67.1502 29.3478 67.6018C29.45 68.0534 29.6858 68.4637 30.0245 68.7794L62.0243 98.6468C62.9559 99.5159 64.1827 99.9991 65.4568 99.9988H93.655L81.3976 64.7885Z" fill="#0078D4"/>
<path d="M35.7621 0.0012573C34.7028 -0.00280804 33.6698 0.331962 32.8143 0.956668C31.9587 1.58137 31.3253 2.46328 31.0065 3.47357L0.681976 93.3195C0.411186 94.0743 0.326172 94.8832 0.434126 95.6778C0.54208 96.4725 0.839827 97.2294 1.30218 97.8846C1.76453 98.5398 2.37788 99.074 3.09035 99.442C3.80282 99.81 4.59345 100.001 5.39535 99.9988H30.4662C31.4 99.832 32.2727 99.4203 32.9952 98.8058C33.7178 98.1913 34.2643 97.396 34.5789 96.5012L40.6262 78.6789L62.2272 98.8265C63.1324 99.5752 64.2679 99.9893 65.4426 99.9988H93.5359L81.2146 64.7884L45.2962 64.7969L67.2795 0.0012573H35.7621Z" fill="url(#paint1_linear_1157_981)"/>
<path d="M75.8716 3.40238C75.5371 2.41102 74.9001 1.54957 74.0502 0.939404C73.2003 0.329236 72.1803 0.00109915 71.1341 0.00122074H36.1348C37.181 0.00128035 38.2008 0.329488 39.0507 0.93963C39.9006 1.54977 40.5377 2.41112 40.8723 3.40238L71.2463 93.4003C71.5002 94.1525 71.5713 94.9544 71.4538 95.7395C71.3364 96.5247 71.0336 97.2706 70.5707 97.9155C70.1077 98.5605 69.4978 99.0859 68.7915 99.4484C68.0852 99.8109 67.3027 99.9999 66.5088 100H101.509C102.303 99.9998 103.085 99.8105 103.792 99.448C104.498 99.0854 105.108 98.56 105.57 97.9151C106.033 97.2701 106.336 96.5243 106.453 95.7392C106.571 94.9542 106.499 94.1524 106.246 93.4003L75.8716 3.40238Z" fill="url(#paint2_linear_1157_981)"/>
<defs>
<linearGradient id="paint0_linear_1157_981" x1="47.2084" y1="7.41138" x2="14.5947" y2="103.761" gradientUnits="userSpaceOnUse">
<stop stop-color="#114A8B"/>
<stop offset="1" stop-color="#0669BC"/>
</linearGradient>
<linearGradient id="paint1_linear_1157_981" x1="57.3956" y1="52.3127" x2="49.8516" y2="54.8636" gradientUnits="userSpaceOnUse">
<stop stop-opacity="0.3"/>
<stop offset="0.071" stop-opacity="0.2"/>
<stop offset="0.321" stop-opacity="0.1"/>
<stop offset="0.623" stop-opacity="0.05"/>
<stop offset="1" stop-opacity="0"/>
</linearGradient>
<linearGradient id="paint2_linear_1157_981" x1="53.2455" y1="4.60122" x2="89.0456" y2="99.9795" gradientUnits="userSpaceOnUse">
<stop stop-color="#3CCBF4"/>
<stop offset="1" stop-color="#2892DF"/>
</linearGradient>
</defs>
</svg>
